<svg width="18" height="18" viewBox="0 0 18 18" fill="none" xmlns="http://www.w3.org/2000/svg">
<path d="M6.43072 0.0233765C9.96149 0.0233765 12.838 2.89992 12.838 6.43069C12.838 7.94821 12.2917 9.33556 11.4048 10.4356L17.3704 16.3991L16.3991 17.3703L10.435 11.4048C9.33627 12.2917 7.94824 12.838 6.43072 12.838C2.89995 12.838 0.0234089 9.96146 0.0234089 6.43069C0.0234089 2.89992 2.89995 0.0233765 6.43072 0.0233765ZM6.43072 1.37228C3.62904 1.37228 1.37232 3.62901 1.37232 6.43069C1.37232 9.23237 3.62904 11.4891 6.43072 11.4891C9.2324 11.4891 11.4891 9.23237 11.4891 6.43069C11.4891 3.62901 9.2324 1.37228 6.43072 1.37228Z" fill="#6B6B6B"/>
</svg>
